<?xml version="1.0" standalone="no"?><!DOCTYPE svg PUBLIC "-//W3C//DTD SVG 1.1//EN" "http://www.w3.org/Graphics/SVG/1.1/DTD/svg11.dtd"><svg t="1588907156863" class="icon" viewBox="0 0 1024 1024" version="1.1" xmlns="http://www.w3.org/2000/svg" p-id="1770" xmlns:xlink="http://www.w3.org/1999/xlink" width="200" height="200"><defs><style type="text/css"></style></defs><path d="M480 288H288v192h192V288z m54.624-54.624A31.904 31.904 0 0 1 544 256v224h224a32 32 0 0 1 32 32v256a32 32 0 0 1-32 32H256a32 32 0 0 1-32-32V256a32 32 0 0 1 32-32h256c8.832 0 16.832 3.584 22.624 9.376zM480 736v-192H288v192h192z m64 0h192v-192h-192v192z" p-id="1771"></path></svg>