<?xml version="1.0" standalone="no"?><!DOCTYPE svg PUBLIC "-//W3C//DTD SVG 1.1//EN" "http://www.w3.org/Graphics/SVG/1.1/DTD/svg11.dtd"><svg t="1590205649662" class="icon" viewBox="0 0 1024 1024" version="1.1" xmlns="http://www.w3.org/2000/svg" p-id="2371" xmlns:xlink="http://www.w3.org/1999/xlink" width="200" height="200"><defs><style type="text/css"></style></defs><path d="M503.829 643.162c-16.672 0-33.335-3.744-46.608-11.188l-404.592-227.010c-17.45-9.75-27.477-25.068-27.477-41.977 0-16.876 10.020-32.185 27.493-42.003l404.583-226.95c26.542-14.935 66.653-14.935 93.293 0l404.583 226.973c17.454 9.799 27.477 25.107 27.47 42.003 0 16.876-10.057 32.167-27.477 41.977l-404.522 226.987c-13.301 7.471-29.968 11.188-46.677 11.188zM85.876 363.052l397.178 222.846c10.473 5.917 31.077 5.886 41.508 0h0.001l397.178-222.846-397.178-222.821c-10.516-5.886-31.069-5.923-41.502-0.001l-397.243 222.835z" p-id="2372"></path><path d="M503.966 933.306c-157.358 0-324.966-50.43-331.333-144.003-0.288-1.465-0.451-3.179-0.451-4.893 0 0 0-0.001 0-0.001v-301.531c0-14.62 11.833-26.42 26.42-26.42s26.42 11.833 26.42 26.42v297.682c0.161 1.18 0.27 2.343 0.27 3.546 0.423 40.23 106.646 96.322 278.633 96.322s278.225-56.119 278.626-96.322l0.004-1.373v-299.879c0-14.62 11.833-26.42 26.42-26.42s26.42 11.833 26.42 26.42v301.531c0 0.77-0.003 1.533-0.117 2.306-3.363 95.248-172.651 146.604-331.434 146.604zM950.401 830.174c-14.62 0-26.42-11.833-26.42-26.42v-314.831c0-14.62 11.833-26.42 26.42-26.42s26.42 11.833 26.42 26.42v314.831c0 14.62-11.833 26.42-26.42 26.42z" p-id="2373"></path></svg>