<?xml version="1.0" standalone="no"?><!DOCTYPE svg PUBLIC "-//W3C//DTD SVG 1.1//EN" "http://www.w3.org/Graphics/SVG/1.1/DTD/svg11.dtd"><svg t="1590218832328" class="icon" viewBox="0 0 1117 1024" version="1.1" xmlns="http://www.w3.org/2000/svg" p-id="1917" xmlns:xlink="http://www.w3.org/1999/xlink" width="218.1640625" height="200"><defs><style type="text/css"></style></defs><path d="M93.090909 139.636364h930.909091a93.090909 93.090909 0 0 1 93.090909 93.090909V930.909091a93.090909 93.090909 0 0 1-93.090909 93.090909H93.090909a93.090909 93.090909 0 0 1-93.090909-93.090909V232.727273a93.090909 93.090909 0 0 1 93.090909-93.090909z m67.304727 674.909091c0 93.090909 395.636364 107.52 395.636364 0 0-93.090909-88.622545-187.112727-197.818182-187.112728-109.288727 0-197.818182 94.021818-197.818182 187.112728zM463.592727 486.213818a106.682182 106.682182 0 1 0-213.364363 0 106.682182 106.682182 0 0 0 213.364363 0zM689.524364 465.454545a46.545455 46.545455 0 0 0 0 93.09091h198.469818a46.545455 46.545455 0 0 0 0-93.09091H689.524364z m45.056 186.181819a46.545455 46.545455 0 0 0 0 93.090909h151.924363a46.545455 46.545455 0 0 0 0-93.090909H734.580364zM465.454545 0h186.181819a46.545455 46.545455 0 0 1 0 93.090909H465.454545a46.545455 46.545455 0 0 1 0-93.090909z" p-id="1918"></path></svg>