<?xml version="1.0" standalone="no"?><!DOCTYPE svg PUBLIC "-//W3C//DTD SVG 1.1//EN" "http://www.w3.org/Graphics/SVG/1.1/DTD/svg11.dtd"><svg t="1590205692191" class="icon" viewBox="0 0 1024 1024" version="1.1" xmlns="http://www.w3.org/2000/svg" p-id="2317" xmlns:xlink="http://www.w3.org/1999/xlink" width="200" height="200"><defs><style type="text/css"></style></defs><path d="M512 1024a512 512 0 0 1 0-1024c4.677189 0 9.188324 0.581189 13.837838 0.691892V470.486486h496.058811c1.107027 13.837838 2.103351 27.509622 2.103351 41.513514A512 512 0 0 1 512 1024zM470.486486 525.837838V57.454703A456.648649 456.648649 0 1 0 967.956757 525.837838H470.486486z m110.702703-464.70227V5.203027A511.833946 511.833946 0 0 1 1014.562595 415.135135H958.131892A456.648649 456.648649 0 0 0 581.189189 61.135568z" fill="" p-id="2318"></path></svg>