<?xml version="1.0" standalone="no"?><!DOCTYPE svg PUBLIC "-//W3C//DTD SVG 1.1//EN" "http://www.w3.org/Graphics/SVG/1.1/DTD/svg11.dtd"><svg t="1592985545587" class="icon" viewBox="0 0 1024 1024" version="1.1" xmlns="http://www.w3.org/2000/svg" p-id="2185" xmlns:xlink="http://www.w3.org/1999/xlink" width="200" height="200"><defs><style type="text/css"></style></defs><path d="M870.172755 531.636281c-13.518152 0-24.122909 10.604757-24.122909 24.122909 0 215.591214-175.036759 390.627973-390.627973 390.627973-215.241607 0-390.627973-175.036759-390.627973-390.627973S240.180266 165.480824 455.421873 165.480824c13.518152 0 24.122909-10.604757 24.122909-24.122909s-10.604757-24.122909-24.122909-24.122909c-241.928303 0-438.873791 196.945488-438.873791 438.873791s196.945488 438.524183 438.873791 438.524184 438.873791-196.945488 438.873791-438.873791c0-13.168544-10.604757-24.122909-24.122909-24.122909z" p-id="2186"></path><path d="M624.398771 29.367019c-13.518152 0-24.122909 10.604757-24.122909 24.122909V412.536702c0 13.518152 10.604757 24.122909 24.122909 24.122909h359.046774c13.518152 0 24.122909-10.604757 24.122908-24.122909-0.349607-211.395926-172.123364-383.169682-383.169682-383.169683z m24.122909 359.046774V78.545123c165.364288 11.886651 298.21509 144.504381 309.868669 309.86867H648.52168zM379.207466 357.531808c-4.544896-7.691362-15.149653-11.303972-23.54023-7.108683-10.022078 4.777967-13.518152 15.732332-8.390577 23.773302l76.214407 147.650847h-74.000227c-9.322863 0-17.363833 7.691362-17.363833 17.363833 0 11.537043 7.691362 18.995334 17.363833 18.995334H437.009218v55.704109h-87.518379c-9.322863 0-17.363833 7.691362-17.363833 18.063047 0 10.604757 7.691362 18.995334 17.363833 18.995334H437.009218v64.677365c0 9.322863 7.691362 18.063048 18.063048 18.063047 11.303972 0 18.296119-8.390577 18.296119-18.063047v-65.260044h87.51838c9.322863 0 18.063048-8.390577 18.063047-18.063047 0-11.303972-8.390577-18.995334-18.063047-18.995334h-87.51838v-55.354501h87.51838c9.322863 0 18.063048-7.108683 18.063047-18.063048s-8.390577-18.296119-18.063047-18.296119h-73.067942L564.033231 372.914533v0.349607c4.544896-8.390577 1.631501-19.344941-7.691362-23.54023-8.390577-5.477182-19.344941-1.631501-23.773302 6.759076l-76.564015 148.69967-76.797086-147.650848z" p-id="2187"></path></svg>