<?xml version="1.0" standalone="no"?><!DOCTYPE svg PUBLIC "-//W3C//DTD SVG 1.1//EN" "http://www.w3.org/Graphics/SVG/1.1/DTD/svg11.dtd"><svg t="1592985566048" class="icon" viewBox="0 0 1024 1024" version="1.1" xmlns="http://www.w3.org/2000/svg" p-id="2362" xmlns:xlink="http://www.w3.org/1999/xlink" width="200" height="200"><defs><style type="text/css"></style></defs><path d="M875.765 674.193H665.867c-47.423 0-85.866-38.444-85.866-85.867v-19.081c0-47.423 38.443-85.867 85.866-85.867h209.898c47.423 0 85.867 38.444 85.867 85.867v19.081c0 47.423-38.444 85.867-85.867 85.867zM674.988 540.622c-24.32 0-44.035 19.933-44.035 44.523 0 24.589 19.715 44.523 44.035 44.523 24.32 0 44.035-19.935 44.035-44.523 0-24.59-19.715-44.523-44.035-44.523z m-119.521 21.927v32.472c0 61.29 49.685 110.974 110.974 110.974h218.864v101.768c0 42.155-34.173 76.329-76.326 76.329H141.123c-42.155 0-76.326-34.174-76.326-76.329V368.887c0-42.154 34.171-76.325 76.326-76.325H808.98c42.153 0 76.326 34.171 76.326 76.325v82.688H666.441c-61.29-0.001-110.974 49.683-110.974 110.974zM122.042 190.792c0-28.103 22.781-50.883 50.884-50.883h585.168c28.103 0 50.885 22.78 50.885 50.883V254.4H122.042v-63.607z" fill="" p-id="2363"></path></svg>