<?xml version="1.0" standalone="no"?><!DOCTYPE svg PUBLIC "-//W3C//DTD SVG 1.1//EN" "http://www.w3.org/Graphics/SVG/1.1/DTD/svg11.dtd"><svg t="1590195175404" class="icon" viewBox="0 0 1024 1024" version="1.1" xmlns="http://www.w3.org/2000/svg" p-id="1895" xmlns:xlink="http://www.w3.org/1999/xlink" width="200" height="200"><defs><style type="text/css"></style></defs><path d="M370.858667 706.048l57.634133-7.850667c12.322133-30.976 39.543467-46.4896 81.698133-46.4896 63.232 0 92.194133-9.9328 128.733867 5.307734 21.009067 8.772267 17.186133 27.101867 4.5568 38.741333-16.1792 14.916267-67.703467-2.730667-68.334933 21.128533-0.648533 23.893333 24.098133 15.7696 45.7216 15.7696h63.965866l94.788267-69.290666a13.448533 13.448533 0 0 1 20.957867 14.250666l-6.536534 25.019734a34.133333 34.133333 0 0 1-12.561066 18.688l-101.973334 76.424533H467.3024l-23.7056 22.5792a34.133333 34.133333 0 0 1-50.193067-3.396267l-44.5952-55.739733a34.133333 34.133333 0 0 1 22.050134-55.125333zM375.466667 678.997333l-34.133334 4.642134V563.2a17.066667 17.066667 0 0 1 34.133334 0v115.797333zM477.866667 621.943467c-13.243733 3.1232-24.6272 8.192-34.133334 15.189333V529.066667a17.066667 17.066667 0 0 1 34.133334 0v92.8768zM580.266667 615.594667c-10.359467 0.6144-21.6064 1.348267-34.133334 1.877333V494.933333a17.066667 17.066667 0 0 1 34.133334 0v120.661334zM682.666667 637.371733c-4.608-5.444267-9.659733-10.1376-16.264534-12.885333A126.2592 126.2592 0 0 0 648.533333 618.496V426.666667a17.066667 17.066667 0 0 1 34.133334 0v210.705066zM785.066667 626.858667a13.397333 13.397333 0 0 0-5.461334 2.372266L750.933333 650.1888V358.4a17.066667 17.066667 0 0 1 34.133334 0v268.458667z" p-id="1896"></path><path d="M737.7408 261.2224A571.170133 571.170133 0 0 1 264.533333 512a17.066667 17.066667 0 0 1 0-34.133333c180.394667 0 345.258667-89.5488 444.398934-234.9568l-28.296534 9.728a17.066667 17.066667 0 1 1-11.093333-32.256l64.529067-22.237867a17.066667 17.066667 0 0 1 21.691733 10.581333l22.237867 64.546134a17.066667 17.066667 0 1 1-32.273067 11.127466l-7.9872-23.176533z" p-id="1897"></path><path d="M179.2 85.333333h221.866667a110.933333 110.933333 0 1 1 0 221.866667h-221.866667a110.933333 110.933333 0 1 1 0-221.866667zM161.826133 154.658133c-4.5056 9.728-11.5712 18.3296-21.4016 25.9072l2.1504 7.0656c11.8784-8.704 20.3776-18.7392 25.7024-30.0032l-6.4512-2.9696z m3.7888 23.552c-5.12 11.4688-13.2096 21.7088-24.2688 30.6176l2.1504 7.0656c4.4032-3.3792 8.4992-6.9632 12.1856-10.8544v43.6224h7.0656v-51.8144c3.6864-4.9152 6.7584-10.1376 9.216-15.6672l-6.3488-2.9696z m34.5088-23.1424v11.1616h-22.8352v6.656h22.8352v12.8H173.397333v6.7584h61.0304v-6.7584H207.189333v-12.8h23.04v-6.656h-23.04v-11.1616h-7.0656z m-26.2144 49.8688v6.8608h39.7312v24.4736c0 3.4816-1.7408 5.3248-5.12 5.3248-4.3008 0-8.9088-0.2048-13.6192-0.512l1.6384 7.0656h14.5408c6.5536 0 9.9328-3.3792 9.9328-10.0352V211.797333h11.9808v-6.8608h-11.9808v-7.5776h-7.3728v7.5776H173.909333z m12.0832 10.8544l-5.7344 3.584c5.5296 5.7344 9.9328 11.0592 13.2096 15.7696l5.7344-4.096a133.376 133.376 0 0 0-13.2096-15.2576z m64.4096-54.3744v7.168h18.6368v23.552c0 1.024-0.1024 2.2528-0.1024 3.584h-24.064v7.0656h23.6544a87.722667 87.722667 0 0 1-4.4032 21.0944c-3.2768 7.7824-9.1136 14.0288-17.408 18.7392l3.9936 6.3488c9.0112-4.7104 15.4624-11.3664 19.3536-19.968 3.072-6.9632 5.0176-15.6672 5.9392-26.2144h29.5936v45.3632h7.4752v-45.3632h22.4256v-7.0656h-22.4256v-27.136h17.1008v-7.168h-79.7696z m146.3296 32.3584c3.2768 10.5472 7.2704 19.8656 12.0832 28.0576a68.334933 68.334933 0 0 1-23.552 20.3776l4.1984 6.656a76.680533 76.680533 0 0 0 23.552-20.5824c6.3488 9.0112 14.0288 16.0768 22.9376 21.1968l4.1984-6.2464a69.188267 69.188267 0 0 1-22.9376-21.1968c7.3728-12.1856 11.3664-26.9312 11.9808-44.1344h7.5776v-7.0656h-30.208c1.3312-4.5056 2.4576-9.4208 3.3792-14.6432l-7.2704-1.2288c-2.8672 17.3056-8.2944 31.1296-16.2816 41.3696l4.5056 5.4272a80.213333 80.213333 0 0 0 5.8368-7.9872z m-49.7664-23.04v7.0656h10.6496v9.4208c-0.2048 26.0096-4.4032 44.9536-12.8 56.7296l5.7344 5.0176c7.5776-10.8544 12.0832-27.2384 13.5168-49.152h12.9024c-0.1024 20.2752-0.512 32.4608-1.2288 36.352-0.7168 3.3792-2.9696 5.12-6.656 5.12-2.2528 0-4.8128-0.1024-7.68-0.3072l1.6384 6.3488c3.3792 0.2048 5.7344 0.4096 7.0656 0.4096 7.2704 0 11.3664-2.9696 12.3904-8.8064 0.9216-5.7344 1.4336-20.992 1.4336-45.8752H364.373333c0-1.8432 0.1024-3.7888 0.1024-5.8368v-9.4208h24.8832v-7.0656h-15.36a141.243733 141.243733 0 0 0-6.8608-16.2816l-7.168 2.048c2.4576 4.608 4.7104 9.3184 6.5536 14.2336H346.965333z m-70.3488-2.1504h28.9792v27.136h-29.0816c0-1.1264 0.1024-2.3552 0.1024-3.584v-23.552z m127.6928 9.3184h17.8176c-0.512 14.336-3.584 26.8288-9.3184 37.376a122.197333 122.197333 0 0 1-11.8784-29.2864c1.2288-2.56 2.3552-5.2224 3.3792-8.0896z" p-id="1898"></path></svg>