<?xml version="1.0" standalone="no"?><!DOCTYPE svg PUBLIC "-//W3C//DTD SVG 1.1//EN" "http://www.w3.org/Graphics/SVG/1.1/DTD/svg11.dtd"><svg t="1592985692799" class="icon" viewBox="0 0 1024 1024" version="1.1" xmlns="http://www.w3.org/2000/svg" p-id="4628" xmlns:xlink="http://www.w3.org/1999/xlink" width="200" height="200"><defs><style type="text/css"></style></defs><path d="M836.0373136 70.13093663a88.37381268 88.37381268 0 0 1 88.37381267 88.37381267v613.90341918L713.05042384 1012.78493895H217.42062487a88.37381268 88.37381268 0 0 1-88.37381268-88.37381268V158.5047493a88.37381268 88.37381268 0 0 1 88.37381268-88.37381267v854.28018964h368.19476109l0.02945746-250.39247016H836.0373136V70.13093663z m-20.50272454 692.26153216H674.01865611l-0.02945748 160.9876292 141.54539043-160.9876292zM570.91587557 512v88.37381268h-265.12143801v-88.37381268h265.12143801z m147.28968687-176.74762534v88.37381266H305.79443756v-88.37381266h412.41112488z m58.91587559-324.03731361v147.28968825h-88.37381269V11.21506105h88.37381269zM361.23427557 11.21506105v147.28968825h-88.37381267V11.21506105h88.37381267zM629.83174977 57.31673378v88.37381268h-206.20556245v-88.37381268h206.20556245z" p-id="4629"></path></svg>