<?xml version="1.0" standalone="no"?><!DOCTYPE svg PUBLIC "-//W3C//DTD SVG 1.1//EN" "http://www.w3.org/Graphics/SVG/1.1/DTD/svg11.dtd"><svg t="1590133824891" class="icon" viewBox="0 0 1024 1024" version="1.1" xmlns="http://www.w3.org/2000/svg" p-id="2633" xmlns:xlink="http://www.w3.org/1999/xlink" width="200" height="200"><defs><style type="text/css"></style></defs><path d="M944.856615 859.687385l-113.900307-168.231385a416.492308 416.492308 0 0 0 101.139692-272.580923c0-231.364923-188.120615-418.914462-420.155077-418.914462-232.014769 0-420.135385 187.549538-420.135385 418.914462a416.531692 416.531692 0 0 0 101.139693 272.580923l-113.900308 168.231385a23.236923 23.236923 0 0 0 5.632 31.862153l35.347692 25.6a23.630769 23.630769 0 0 0 17.900308 4.056616l66.934154-12.169846 11.933538 70.025846c1.043692 5.986462 4.371692 11.342769 9.29477 14.907077l35.367384 25.639384a23.945846 23.945846 0 0 0 17.762462 3.997539c6.222769-1.102769 11.756308-4.647385 15.281231-9.885539l125.892923-185.934769c30.050462 6.656 60.750769 10.023385 91.549538 10.003692a422.596923 422.596923 0 0 0 91.588923-10.003692l125.892923 185.934769a23.296 23.296 0 0 0 19.318154 10.259693c4.883692 0 9.688615-1.536 13.705846-4.371693l35.367385-25.639384a23.236923 23.236923 0 0 0 9.275077-14.907077l11.953231-70.025846 66.914461 12.169846c6.262154 1.083077 12.760615-0.315077 17.92-4.056616l35.347692-25.6a23.236923 23.236923 0 0 0 5.632-31.862153z m-675.50523 108.032l-8.132923-5.888-14.316308-83.889231a23.138462 23.138462 0 0 0-9.609846-15.163077c-5.12-3.544615-11.441231-4.923077-17.565539-3.820308l-80.344615 14.651077-9.038769-6.518154 95.684923-141.312a419.879385 419.879385 0 0 0 147.140923 88.576l-103.817846 153.363693z m242.589538-190.247385c-198.596923 0-359.620923-160.551385-359.620923-358.596923s161.004308-358.596923 359.620923-358.596923c198.636308 0 359.640615 160.531692 359.640615 358.596923 0 198.045538-161.024 358.596923-359.640615 358.596923z m372.578462 96.137846l-80.344616-14.651077a23.532308 23.532308 0 0 0-17.565538 3.820308c-5.12 3.564308-8.585846 9.019077-9.629539 15.163077l-14.296615 83.889231-8.113231 5.888-103.837538-153.363693a420.036923 420.036923 0 0 0 147.140923-88.576l95.684923 141.312-9.038769 6.518154zM366.532923 209.427692c-17.624615 0-29.203692-0.492308-44.288-2.500923 2.520615 15.556923 3.012923 33.614769 3.012923 85.799385 0 122.427077-4.017231 197.671385-13.075692 247.847384-5.533538 31.606154-13.587692 53.681231-29.184 78.276924 10.555077 7.522462 16.600615 13.548308 25.659077 25.088 25.659077-42.141538 35.229538-80.797538 42.259692-170.082462h67.938462v120.398769c0 13.056-2.520615 15.064615-17.604923 15.064616-10.062769 0-23.650462-2.008615-37.750154-5.021539 4.529231 12.032 6.537846 20.558769 6.537846 32.118154 16.108308 1.496615 25.678769 1.988923 37.750154 1.988923 30.700308 0 40.251077-9.531077 40.251077-40.625231V257.595077c0-25.088 0.512-38.636308 2.008615-50.668308-12.071385 2.008615-22.134154 2.500923-38.734769 2.500923h-44.780308zM418.855385 445.243077h-66.422154c0.512-12.032 1.004308-17.565538 1.004307-52.676923 0.512-8.034462 0.512-21.070769 1.004308-37.139692h64.413539v89.816615z m0-118.409846h-64.413539l0.512-16.049231v-72.763077h63.901539v88.812308z m278.272 112.896c4.529231-9.038769 6.045538-12.051692 10.574769-19.574154l-18.116923-20.558769c-9.570462 1.496615-20.145231 2.008615-38.754462 2.008615h-133.356307c-19.121231 0-31.684923-0.512-45.784616-2.520615v32.610461c13.587692-1.496615 27.175385-2.500923 39.758769-2.500923 17.604923 38.636308 20.125538 43.145846 31.704616 62.208 12.071385 19.062154 22.646154 32.610462 39.246769 50.176-39.758769 35.111385-73.472 55.197538-125.302154 74.259692 11.579077 10.535385 16.600615 18.057846 21.641846 29.105231 56.851692-27.096615 81.014154-42.653538 125.302154-81.801846 38.242462 35.131077 75.972923 57.718154 129.319385 79.281231 5.533538-12.544 10.062769-19.554462 19.613538-31.113846-51.318154-16.049231-88.556308-36.608-127.310769-69.730462a403.889231 403.889231 0 0 0 71.463385-101.848615z m-154.486154-10.535385h124.790154c-18.609231 38.636308-33.201231 59.707077-63.389539 91.805539-27.687385-28.081231-40.270769-47.143385-61.400615-91.805539z m-57.875693-40.644923c22.153846-15.556923 35.229538-31.113846 46.808616-55.689846 12.583385-26.604308 18.609231-56.201846 19.121231-97.339077h82.530461v99.347692c0 25.580308 11.067077 31.094154 61.380923 31.094154 15.104 0 26.171077-0.492308 46.808616-2.500923l1.496615-31.113846c-11.579077 3.012923-28.179692 4.529231-45.784615 4.529231-26.171077 0-33.713231-2.520615-33.713231-11.539693v-71.758769c0-21.070769 0.492308-34.107077 2.008615-47.655384-12.583385 1.496615-23.650462 2.008615-42.771692 2.008615h-63.901539c-13.095385 0-25.659077-0.512-40.763076-2.008615 1.516308 11.027692 2.520615 20.066462 2.520615 31.094153 0 29.617231-4.529231 55.709538-12.583385 74.259693-10.574769 24.595692-24.654769 40.152615-51.318154 54.685538 12.071385 6.025846 18.609231 11.047385 28.16 22.587077z" p-id="2634"></path></svg>