<?xml version="1.0" standalone="no"?><!DOCTYPE svg PUBLIC "-//W3C//DTD SVG 1.1//EN" "http://www.w3.org/Graphics/SVG/1.1/DTD/svg11.dtd"><svg t="1591273411977" class="icon" viewBox="0 0 1024 1024" version="1.1" xmlns="http://www.w3.org/2000/svg" p-id="2613" xmlns:xlink="http://www.w3.org/1999/xlink" width="200" height="200"><defs><style type="text/css"></style></defs><path d="M877.349 696.466a23.04 23.04 0 0 1 22.381-40.228l29.477 16.31c37.742 20.993 50.103 67.292 26.478 102.62a76.434 76.434 0 0 1-26.478 24.21l-378.441 210.213c-24.723 13.75-55.516 13.75-80.238 0L92.16 799.45c-37.669-21.065-50.03-67.291-26.331-102.619a76.378 76.378 0 0 1 26.477-24.21l29.843-16.604a23.04 23.04 0 0 1 22.381 40.229l-29.842 16.603a30.354 30.354 0 0 0-10.533 9.509c-8.338 12.58-4.096 28.599 10.533 36.718l378.368 210.285a37.23 37.23 0 0 0 35.474 0l378.368-210.285a30.354 30.354 0 0 0 10.533-9.509c8.338-12.434 4.096-28.526-10.533-36.718l-29.476-16.31z m-2.414-219.209a23.04 23.04 0 0 1 22.382-40.228l31.89 17.7c37.742 20.992 50.103 67.292 26.478 102.546a76.434 76.434 0 0 1-26.478 24.21L550.766 791.772c-24.723 13.751-55.516 13.751-80.238 0L92.16 581.486c-37.669-20.992-50.03-67.292-26.331-102.547a76.378 76.378 0 0 1 26.477-24.21l32.037-17.774a23.04 23.04 0 0 1 22.382 40.229l-32.037 17.847a30.354 30.354 0 0 0-10.533 9.508c-8.338 12.435-4.096 28.526 10.533 36.718L493.056 751.47a37.157 37.157 0 0 0 35.474 0l378.295-210.213a30.354 30.354 0 0 0 10.533-9.508c8.338-12.581 4.096-28.6-10.533-36.718l-31.89-17.774z m-350.5-415.086a28.16 28.16 0 0 0-27.356 0L117.32 273.115a28.16 28.16 0 0 0 0 49.226L497.08 533.358a28.16 28.16 0 0 0 27.355 0L904.12 322.34a28.16 28.16 0 0 0 0-49.226L524.434 62.098zM926.5 232.887a74.24 74.24 0 0 1 0 129.828L546.816 573.586a74.52 74.52 0 0 1-72.192 0L95.086 362.642a74.24 74.24 0 0 1-0.073-129.828L474.697 21.797c22.382-12.435 49.664-12.435 72.119 0l379.685 211.017z" p-id="2614"></path></svg>