<?xml version="1.0" standalone="no"?><!DOCTYPE svg PUBLIC "-//W3C//DTD SVG 1.1//EN" "http://www.w3.org/Graphics/SVG/1.1/DTD/svg11.dtd"><svg t="1590460827295" class="icon" viewBox="0 0 1024 1024" version="1.1" xmlns="http://www.w3.org/2000/svg" p-id="2158" xmlns:xlink="http://www.w3.org/1999/xlink" width="200" height="200"><defs><style type="text/css"></style></defs><path d="M937.3824 766.72h-21.76V256H936.96a30.72 30.72 0 0 0 30.72-30.72v-28.16a30.72 30.72 0 0 0-30.72-30.72H96a30.72 30.72 0 0 0-30.72 30.72v28.16a30.72 30.72 0 0 0 30.72 30.72h22.1824v510.72h-21.76a30.72 30.72 0 0 0-30.72 30.72v28.16a30.72 30.72 0 0 0 30.72 30.72h840.96a30.72 30.72 0 0 0 30.72-30.72v-28.16a30.72 30.72 0 0 0-30.72-30.72zM90.88 225.28v-28.16a5.12 5.12 0 0 1 5.12-5.12h840.96a5.12 5.12 0 0 1 5.12 5.12v28.16a5.12 5.12 0 0 1-5.12 5.12H96a5.12 5.12 0 0 1-5.12-5.12z m52.9024 30.72h746.24v510.72h-746.24z m798.72 569.6a5.12 5.12 0 0 1-5.12 5.12h-840.96a5.12 5.12 0 0 1-5.12-5.12v-28.16a5.12 5.12 0 0 1 5.12-5.12h840.96a5.12 5.12 0 0 1 5.12 5.12z" fill="#605E5C" p-id="2159"></path><path d="M204.8 355.712h44.8V700.16h-44.8zM304 442.88h44.8v258.2784h-44.8zM601.6 572.16h44.8v128.9984h-44.8zM502.4 467.2h44.8v233.9584h-44.8zM403.2 518.4h44.8v182.7584h-44.8z" fill="#605E5C" p-id="2160"></path></svg>